<mxfile host="app.diagrams.net" agent="Mozilla/5.0 (Windows NT 10.0; Win64; x64) AppleWebKit/537.36 (KHTML, like Gecko) Chrome/134.0.0.0 Safari/537.36" version="26.2.2">
  <diagram name="Página-1" id="FJbmDglFWnsj-qi-o8i6">
    <mxGraphModel dx="988" dy="535" grid="1" gridSize="10" guides="1" tooltips="1" connect="1" arrows="1" fold="1" page="1" pageScale="1" pageWidth="827" pageHeight="1169" math="0" shadow="0">
      <root>
        <mxCell id="0" />
        <mxCell id="1" parent="0" />
        <mxCell id="PJIyf_zd7t_z79XDQOop-1" value="" style="rounded=0;whiteSpace=wrap;html=1;" vertex="1" parent="1">
          <mxGeometry x="60" y="230" width="150" height="150" as="geometry" />
        </mxCell>
        <mxCell id="PJIyf_zd7t_z79XDQOop-3" value="Encapsulación" style="text;strokeColor=none;fillColor=none;html=1;align=center;verticalAlign=middle;whiteSpace=wrap;rounded=0;fontSize=16;" vertex="1" parent="1">
          <mxGeometry x="105" y="150" width="60" height="30" as="geometry" />
        </mxCell>
        <mxCell id="PJIyf_zd7t_z79XDQOop-4" value="Botón de encendido" style="text;strokeColor=none;fillColor=none;html=1;align=center;verticalAlign=middle;whiteSpace=wrap;rounded=0;fontSize=16;" vertex="1" parent="1">
          <mxGeometry x="97.5" y="240" width="75" height="30" as="geometry" />
        </mxCell>
        <mxCell id="PJIyf_zd7t_z79XDQOop-5" value="Función: encender y apagar el celular" style="text;strokeColor=none;fillColor=none;html=1;align=center;verticalAlign=middle;whiteSpace=wrap;rounded=0;fontSize=16;" vertex="1" parent="1">
          <mxGeometry x="70" y="290" width="130" height="60" as="geometry" />
        </mxCell>
        <mxCell id="PJIyf_zd7t_z79XDQOop-6" value="Abstracción" style="text;strokeColor=none;fillColor=none;html=1;align=center;verticalAlign=middle;whiteSpace=wrap;rounded=0;fontSize=16;" vertex="1" parent="1">
          <mxGeometry x="310" y="150" width="60" height="30" as="geometry" />
        </mxCell>
        <mxCell id="PJIyf_zd7t_z79XDQOop-7" value="" style="rounded=0;whiteSpace=wrap;html=1;" vertex="1" parent="1">
          <mxGeometry x="254" y="230" width="160" height="150" as="geometry" />
        </mxCell>
        <mxCell id="PJIyf_zd7t_z79XDQOop-8" value="Celular" style="text;strokeColor=none;fillColor=none;html=1;align=center;verticalAlign=middle;whiteSpace=wrap;rounded=0;fontSize=16;" vertex="1" parent="1">
          <mxGeometry x="304" y="240" width="60" height="30" as="geometry" />
        </mxCell>
        <mxCell id="PJIyf_zd7t_z79XDQOop-9" value="Interfaz: pantalla táctil, botón de encendido, botones de subida y bajada de volumen" style="text;strokeColor=none;fillColor=none;html=1;align=center;verticalAlign=middle;whiteSpace=wrap;rounded=0;fontSize=16;" vertex="1" parent="1">
          <mxGeometry x="260" y="280" width="150" height="90" as="geometry" />
        </mxCell>
        <mxCell id="PJIyf_zd7t_z79XDQOop-10" value="" style="rounded=0;whiteSpace=wrap;html=1;" vertex="1" parent="1">
          <mxGeometry x="470" y="230" width="160" height="150" as="geometry" />
        </mxCell>
        <mxCell id="PJIyf_zd7t_z79XDQOop-11" value="Herencia" style="text;strokeColor=none;fillColor=none;html=1;align=center;verticalAlign=middle;whiteSpace=wrap;rounded=0;fontSize=16;" vertex="1" parent="1">
          <mxGeometry x="520" y="150" width="60" height="30" as="geometry" />
        </mxCell>
        <mxCell id="PJIyf_zd7t_z79XDQOop-12" value="Samsung" style="text;strokeColor=none;fillColor=none;html=1;align=center;verticalAlign=middle;whiteSpace=wrap;rounded=0;fontSize=16;" vertex="1" parent="1">
          <mxGeometry x="520" y="240" width="60" height="30" as="geometry" />
        </mxCell>
        <mxCell id="PJIyf_zd7t_z79XDQOop-13" value="Modelos: Samsung A51, Samsung S22" style="text;strokeColor=none;fillColor=none;html=1;align=center;verticalAlign=middle;whiteSpace=wrap;rounded=0;fontSize=16;" vertex="1" parent="1">
          <mxGeometry x="485" y="280" width="130" height="60" as="geometry" />
        </mxCell>
        <mxCell id="PJIyf_zd7t_z79XDQOop-14" value="" style="rounded=0;whiteSpace=wrap;html=1;" vertex="1" parent="1">
          <mxGeometry x="660" y="230" width="160" height="150" as="geometry" />
        </mxCell>
        <mxCell id="PJIyf_zd7t_z79XDQOop-15" value="Polimorfismo" style="text;strokeColor=none;fillColor=none;html=1;align=center;verticalAlign=middle;whiteSpace=wrap;rounded=0;fontSize=16;" vertex="1" parent="1">
          <mxGeometry x="710" y="150" width="60" height="30" as="geometry" />
        </mxCell>
        <mxCell id="PJIyf_zd7t_z79XDQOop-16" value="Huella dactilar" style="text;strokeColor=none;fillColor=none;html=1;align=center;verticalAlign=middle;whiteSpace=wrap;rounded=0;fontSize=16;" vertex="1" parent="1">
          <mxGeometry x="680" y="240" width="120" height="30" as="geometry" />
        </mxCell>
        <mxCell id="PJIyf_zd7t_z79XDQOop-17" value="Función: desbloquear el celular usando las huellas dactilares del dueño del celular" style="text;strokeColor=none;fillColor=none;html=1;align=center;verticalAlign=middle;whiteSpace=wrap;rounded=0;fontSize=16;" vertex="1" parent="1">
          <mxGeometry x="680" y="290" width="130" height="70" as="geometry" />
        </mxCell>
      </root>
    </mxGraphModel>
  </diagram>
</mxfile>
